<?xml version="1.0" encoding="utf-8"?>
<!-- Generator: Adobe Illustrator 21.0.2, SVG Export Plug-In . SVG Version: 6.00 Build 0)  -->
<svg version="1.1" id="Layer_1" xmlns="http://www.w3.org/2000/svg" xmlns:xlink="http://www.w3.org/1999/xlink" x="0px" y="0px"
	 viewBox="0 0 989.3 202.9" style="enable-background:new 0 0 989.3 202.9;" xml:space="preserve">
<style type="text/css">
	.st0{fill:none;stroke:#D5D6D2;stroke-width:7;stroke-miterlimit:10;}
	.st1{fill:none;stroke:#D5D6D2;stroke-width:4;stroke-miterlimit:10;}
</style>
<title>Cubeis-borderless</title>
<path class="st0" d="M129.6,56.9c-8.2-4.6-16.1-6.9-23.8-6.9c-8.1-0.1-16,2.1-22.9,6.5C76,60.9,70.4,67.1,66.8,74.4
	c-7.9,16.2-7.9,35.2,0,51.4c3.7,7.3,9.3,13.5,16.1,18c6.8,4.4,14.8,6.7,22.9,6.6c7.2,0,14.8-2,23-5.9c8.2-4,15.7-9.5,21.9-16.2
	l32.3,34.5c-10.4,11.3-23,20.3-37,26.7c-14.4,6.7-28.8,10-42.9,10c-18.8,0-35.8-4.3-51-12.8c-14.9-8.3-27.3-20.5-35.7-35.4
	c-8.6-15.1-12.9-32-12.9-50.6c0-18.3,4.4-34.9,13.2-49.7C25.4,36.3,38,24.2,53,16.1C68.5,7.7,85.8,3.5,105,3.5
	c14.6,0.1,29.1,3.2,42.5,9.1c14.2,6.1,26,14.3,35.5,24.5l-32.3,38.5C145.1,68,137.9,61.6,129.6,56.9z"/>
<path class="st0" d="M262.2,143.2c5.9,6.4,14.2,9.9,22.9,9.7c9,0,16.3-3.2,22.1-9.6c5.7-6.4,8.6-14.9,8.6-25.7V7h56v110.6
	c0,16.5-3.5,30.9-10.6,43.2c-7.1,12.3-17.6,22.2-30.3,28.5c-13.1,6.7-28.4,10.1-45.8,10.1c-17.6,0-33-3.4-46.3-10.1
	c-12.8-6.3-23.5-16.2-30.8-28.5c-7.3-12.3-10.9-26.7-10.9-43.2V7h56v110.6C253,128.2,256.1,136.7,262.2,143.2z"/>
<path class="st0" d="M531.3,12.8c10.9,3.9,19.4,9.4,25.3,16.5c5.9,7.1,9,16.1,8.9,25.3c0.1,9.2-2.9,18.1-8.6,25.3
	c-5.7,7.3-13.6,12.4-23.4,15.3c11.5,2.3,20.7,7.8,27.6,16.5c6.9,8.7,10.4,19.1,10.4,31.1c0.2,10.1-3,19.9-9.2,27.9
	c-6.1,8-14.8,14.1-26,18.4s-24.3,6.4-39.2,6.5h-96.6V7h92.6C507.6,7,520.4,8.9,531.3,12.8z M503.3,76.6c3.2-3,4.8-7,4.8-12
	c0-4.8-1.6-8.7-4.8-11.4c-3.2-2.8-7.6-4.2-13.2-4.2h-33.9v32h33.9C495.7,81,500.1,79.6,503.3,76.6L503.3,76.6z M507.2,149.1
	c4.2-3.1,6.5-8,6.3-13.2c0.2-4.9-2.2-9.5-6.3-12.3c-4.2-3-9.9-4.3-17.1-4.2h-33.9v34.2h33.9C497.3,153.9,503,152.4,507.2,149.1
	L507.2,149.1z"/>
<path class="st0" d="M594.3,7h154.2v43.1h-98.2v29.6h89.1v43.1h-89.1v29.9h100.9v43.1H594.3V7z"/>
<path class="st1" d="M791.9,7.5h18.6v188.1h-18.6L791.9,7.5z"/>
<path class="st1" d="M948.8,27.1c-8.4-2.5-17.1-3.8-25.8-3.9c-12.9,0-23.3,2.6-31.1,7.7s-11.7,12.1-11.7,20.9c0,7.7,2.2,14,6.5,18.8
	c4.4,4.9,9.8,8.8,15.9,11.4c8.4,3.6,17.1,6.7,25.8,9.3c12.7,3.8,23,7.5,30.8,11.2c7.8,3.7,14.6,9.2,19.9,16c5.5,7,8.2,16.2,8.2,27.7
	c0.2,9.6-2.8,18.9-8.5,26.7c-5.7,7.7-13.6,13.7-23.8,17.9s-22,6.3-35.3,6.3c-13.2,0-26.2-2.7-38.4-7.8
	c-11.9-4.8-22.8-11.9-32.2-20.7l8.6-15.3c8.5,8.3,18.4,14.8,29.3,19.4c10.4,4.5,21.5,6.9,32.8,7c14.4,0,25.7-2.9,34.2-8.8
	c8.4-5.8,12.7-13.7,12.7-23.5c0-7.9-2.2-14.4-6.5-19.4c-4.3-5-9.8-9-15.9-11.6c-6.3-2.7-15.1-5.8-26.4-9.4
	c-10.4-3.1-20.7-6.8-30.7-11.2c-7.7-3.5-14.5-8.9-19.7-15.6c-5.4-6.9-8.1-15.9-8.1-27c-0.2-9,2.7-17.8,8.1-25
	c5.4-7.2,12.9-12.7,22.6-16.5c9.7-3.9,20.9-5.8,33.7-5.8c20.5,0.2,40.6,6,58.1,16.7l-8.1,15.9C966.2,33.3,957.7,29.6,948.8,27.1z"/>
</svg>
